<?xml version="1.0" encoding="UTF-8"?>
<svg width="216px" height="39px" viewBox="0 0 216 39" version="1.1" xmlns="http://www.w3.org/2000/svg" xmlns:xlink="http://www.w3.org/1999/xlink">
    <!-- Generator: Sketch 46.2 (44496) - http://www.bohemiancoding.com/sketch -->
    <title>Dancinggoat-whitelogo</title>
    <desc>Created with Sketch.</desc>
    <defs>
        <path d="M1.24539877,11.9 L22.9509202,11.9 L20.1988129,27.9957324 C19.7665706,30.5237068 17.5414758,32.375 14.935311,32.375 L9.26100799,32.375 C6.65484319,32.375 4.42974843,30.5237068 3.99750611,27.9957324 L1.24539877,11.9 Z" id="path-1"></path>
        <polygon id="path-2" points="1.42331288 1.05 2.84662577 0 0 0"></polygon>
    </defs>
    <g id="Page-1" stroke="none" stroke-width="1" fill="none" fill-rule="evenodd">
        <g id="Dancinggoat-whitelogo" transform="translate(2.000000, 2.000000)">
            <path d="M44.4721777,8.33836543 L49.7289513,8.33836543 C51.0963531,8.33836543 52.2690411,8.46468727 53.2470503,8.71733472 C54.2250596,8.96998218 55.1124991,9.44368905 55.9093956,10.1384695 C57.9831375,11.9070017 59.0199928,14.5958522 59.0199928,18.2051015 C59.0199928,19.3961538 58.9158545,20.4834239 58.7075748,21.4669443 C58.499295,22.4504647 58.1778246,23.3369733 57.7431538,24.1264966 C57.308483,24.9160199 56.7515694,25.6220687 56.0723963,26.2446642 C55.5381135,26.7228898 54.9540334,27.1063668 54.3201385,27.3951067 C53.6862436,27.6838467 53.0048168,27.8868639 52.2758377,28.0041645 C51.5468585,28.1214651 50.7250714,28.1801145 49.8104516,28.1801145 L44.5536781,28.1801145 C43.8201711,28.1801145 43.2677853,28.0695829 42.896504,27.8485164 C42.5252227,27.6274499 42.2829879,27.3161568 42.1697924,26.9146278 C42.0565969,26.5130988 42,25.9920212 42,25.3513795 L42,10.8016658 C42,9.93544596 42.1946934,9.30834829 42.5840859,8.92035398 C42.9734785,8.53235968 43.6028362,8.33836543 44.4721777,8.33836543 Z M46.0342681,11.5190005 L46.0342681,24.9859448 L49.0905317,24.9859448 C49.7606492,24.9859448 50.2858685,24.9678988 50.6662055,24.9318064 C51.0465424,24.8957139 51.4404569,24.805484 51.8479607,24.661114 C52.2554646,24.516744 52.6086293,24.3137268 52.9074655,24.0520562 C54.256756,22.9151427 54.9313912,20.9571543 54.9313912,18.1780323 C54.9313912,16.2200145 54.6348234,14.7537789 54.0416789,13.7792816 C53.4485344,12.8047843 52.7173023,12.1844539 51.8479607,11.9182717 C50.9786192,11.6520896 49.9281805,11.5190005 48.6966133,11.5190005 L46.0342681,11.5190005 Z M70.7060585,26.4341489 C69.80955,27.1289294 68.9424853,27.6500069 68.1048385,27.9973972 C67.2671917,28.3447874 66.327683,28.51848 65.2862842,28.51848 C64.3354419,28.51848 63.5000715,28.331253 62.780148,27.9567933 C62.0602245,27.5823337 61.5055748,27.0747906 61.1161822,26.4341489 C60.7267897,25.7935071 60.5320963,25.098737 60.5320963,24.3498178 C60.5320963,23.339228 60.8535667,22.4775326 61.4965173,21.7647059 C62.1394678,21.0518791 63.0223796,20.5736608 64.1452791,20.3300364 C64.3807258,20.2758977 64.9648059,20.1540874 65.897537,19.9646018 C66.830268,19.7751162 67.6294164,19.6014237 68.295006,19.443519 C68.9605957,19.2856143 69.6827722,19.0938758 70.4615574,18.8682978 C70.4162792,17.8938004 70.2193219,17.1787286 69.8706798,16.7230609 C69.5220376,16.2673932 68.799861,16.0395627 67.7041284,16.0395627 C66.7623417,16.0395627 66.0537484,16.1703961 65.5783272,16.4320666 C65.102906,16.6937372 64.6954083,17.0862372 64.3558217,17.6095783 C64.0162352,18.1329195 63.7762643,18.4780488 63.6359019,18.6449766 C63.4955394,18.8119044 63.1944439,18.895367 62.7326061,18.895367 C62.3160466,18.895367 61.9560903,18.7622779 61.6527263,18.4960958 C61.3493623,18.2299136 61.1976826,17.8892958 61.1976826,17.4742322 C61.1976826,16.8245673 61.428598,16.1929581 61.8904357,15.5793857 C62.3522734,14.9658133 63.0721861,14.460526 64.0501954,14.0635086 C65.0282046,13.6664912 66.2461701,13.4679854 67.7041284,13.4679854 C69.3341438,13.4679854 70.6154979,13.6597239 71.5482289,14.0432067 C72.48096,14.4266894 73.139748,15.0334854 73.5246128,15.8636127 C73.9094775,16.6937401 74.101907,17.7945446 74.101907,19.1660593 C74.101907,20.0322792 74.0996432,20.7676527 74.0951153,21.372202 C74.0905875,21.9767512 74.0837959,22.6489639 74.0747402,23.38886 C74.0747402,24.0836405 74.1901979,24.8077353 74.4211168,25.5611661 C74.6520356,26.3145969 74.7674933,26.7995825 74.7674933,27.0161374 C74.7674933,27.3951086 74.5886471,27.7402379 74.2309493,28.0515357 C73.8732514,28.3628334 73.4680176,28.51848 73.0152355,28.51848 C72.6348986,28.51848 72.2590951,28.3402759 71.8878138,27.9838626 C71.5165325,27.6274492 71.122618,27.1108831 70.7060585,26.4341489 Z M70.4615574,21.087975 C69.9182189,21.2864837 69.1281261,21.4962682 68.0912551,21.7173347 C67.0543842,21.9384012 66.3367354,22.100815 65.9382872,22.2045809 C65.5398389,22.3083469 65.1595077,22.5113641 64.7972821,22.8136387 C64.4350564,23.1159134 64.2539463,23.5377381 64.2539463,24.0791255 C64.2539463,24.6385591 64.4667507,25.1145217 64.8923658,25.5070276 C65.317981,25.8995335 65.8748945,26.0957834 66.5631233,26.0957834 C67.2966302,26.0957834 67.9735293,25.9356254 68.5938407,25.6153045 C69.2141521,25.2949836 69.6691913,24.8821819 69.9589718,24.376887 C70.2940305,23.8174534 70.4615574,22.8971086 70.4615574,21.6158251 L70.4615574,21.087975 Z M80.2595313,15.5387819 L80.2595313,15.9854243 C80.9115374,15.1282275 81.6246585,14.4988741 82.3989158,14.0973451 C83.1731732,13.6958161 84.0628766,13.4950547 85.0680528,13.4950547 C86.0460621,13.4950547 86.9199183,13.7070949 87.6896479,14.1311817 C88.4593774,14.5552685 89.034402,15.1552972 89.4147389,15.9312858 C89.6592412,16.382442 89.8177126,16.8696833 89.8901577,17.3930245 C89.9626028,17.9163656 89.9988249,18.5840667 89.9988249,19.3961478 L89.9988249,26.2717335 C89.9988249,27.0116296 89.8290341,27.5710548 89.4894476,27.950026 C89.149861,28.3289972 88.7084051,28.51848 88.1650667,28.51848 C87.6126725,28.51848 87.164425,28.3244857 86.8203106,27.9364914 C86.4761963,27.5484971 86.3041417,26.9935833 86.3041417,26.2717335 L86.3041417,20.1134826 C86.3041417,18.8953609 86.1343509,17.9637374 85.7947644,17.3185841 C85.4551778,16.6734307 84.7782788,16.3508589 83.764047,16.3508589 C83.1029851,16.3508589 82.500794,16.5471089 81.9574555,16.9396148 C81.4141171,17.3321207 81.0156748,17.8712442 80.7621169,18.5570016 C80.581004,19.1074121 80.490449,20.1360327 80.490449,21.6428943 L80.490449,26.2717335 C80.490449,27.0206527 80.3161305,27.5823337 79.9674883,27.9567933 C79.6188461,28.331253 79.1683347,28.51848 78.6159406,28.51848 C78.0816577,28.51848 77.6424657,28.3244857 77.2983514,27.9364914 C76.954237,27.5484971 76.7821824,26.9935833 76.7821824,26.2717335 L76.7821824,15.5929204 C76.7821824,14.8891167 76.936126,14.3635277 77.2440178,14.0161374 C77.5519096,13.6687472 77.9729906,13.4950547 78.5072734,13.4950547 C78.8332765,13.4950547 79.1275804,13.5717501 79.390194,13.7251432 C79.6528076,13.8785363 79.8633481,14.1086224 80.0218219,14.4154086 C80.1802956,14.7221948 80.2595313,15.0966488 80.2595313,15.5387819 Z M106.017993,23.9437793 C106.017993,24.4039586 105.879897,24.8957114 105.6037,25.4190526 C105.327503,25.9423937 104.906422,26.4409138 104.340444,26.9146278 C103.774466,27.3883418 103.061345,27.769563 102.201059,28.058303 C101.340774,28.3470429 100.371834,28.4914107 99.2942131,28.4914107 C97.0031359,28.4914107 95.2146735,27.8259654 93.9287725,26.4950547 C92.6428714,25.164144 91.9999305,23.3798481 91.9999305,21.1421135 C91.9999305,19.6262288 92.2942344,18.286315 92.8828511,17.1223321 C93.4714678,15.9583492 94.3226853,15.0583061 95.4365292,14.422176 C96.5503731,13.7860458 97.8815324,13.4679854 99.4300471,13.4679854 C100.389945,13.4679854 101.270593,13.6078417 102.072017,13.8875586 C102.873442,14.1672754 103.552604,14.5281949 104.109526,14.970328 C104.666448,15.412461 105.092057,15.8839121 105.386365,16.3846955 C105.680674,16.8854788 105.827826,17.3524184 105.827826,17.7855284 C105.827826,18.2276614 105.662563,18.6021154 105.332032,18.9089016 C105.001501,19.2156878 104.600795,19.3690786 104.129901,19.3690786 C103.82201,19.3690786 103.566192,19.2901275 103.36244,19.1322228 C103.158688,18.9743181 102.930036,18.7194187 102.676478,18.3675169 C102.223696,17.6817595 101.750546,17.1674492 101.257014,16.8245705 C100.763481,16.4816918 100.136387,16.3102551 99.3757135,16.3102551 C98.2799809,16.3102551 97.3970691,16.7365913 96.7269517,17.5892764 C96.0568342,18.4419616 95.7217805,19.6081828 95.7217805,21.087975 C95.7217805,21.7827555 95.8078078,22.4211319 95.979865,23.0031234 C96.1519222,23.5851148 96.4009486,24.0813792 96.7269517,24.4919313 C97.0529547,24.9024834 97.4468692,25.2137765 97.9087069,25.4258199 C98.3705447,25.6378633 98.877653,25.7438834 99.4300471,25.7438834 C100.17261,25.7438834 100.808759,25.5724466 101.338514,25.2295679 C101.868269,24.8866892 102.336891,24.3633559 102.744395,23.6595523 C102.970786,23.2444886 103.215285,22.9196611 103.477899,22.6850599 C103.740512,22.4504587 104.061983,22.3331598 104.44232,22.3331598 C104.895102,22.3331598 105.270905,22.5045966 105.569741,22.8474753 C105.868577,23.190354 106.017993,23.555785 106.017993,23.9437793 Z M111.98545,15.5929204 L111.98545,26.2717335 C111.98545,27.0116296 111.808868,27.5710548 111.455698,27.950026 C111.102528,28.3289972 110.65428,28.51848 110.110942,28.51848 C109.567603,28.51848 109.126147,28.3244857 108.786561,27.9364914 C108.446974,27.5484971 108.277183,26.9935833 108.277183,26.2717335 L108.277183,15.7011973 C108.277183,14.9703243 108.446974,14.419922 108.786561,14.049974 C109.126147,13.6800259 109.567603,13.4950547 110.110942,13.4950547 C110.65428,13.4950547 111.102528,13.6800259 111.455698,14.049974 C111.808868,14.419922 111.98545,14.9342323 111.98545,15.5929204 Z M110.151692,11.7761583 C109.63552,11.7761583 109.194064,11.618256 108.827311,11.3024466 C108.460557,10.9866373 108.277183,10.5399994 108.277183,9.96251952 C108.277183,9.43917837 108.465085,9.00833069 108.840894,8.66996356 C109.216703,8.33159643 109.653631,8.16241541 110.151692,8.16241541 C110.631641,8.16241541 111.05725,8.31580621 111.428531,8.6225924 C111.799812,8.92937859 111.98545,9.3760165 111.98545,9.96251952 C111.98545,10.5309763 111.80434,10.9753585 111.442114,11.2956793 C111.079889,11.6160002 110.649752,11.7761583 110.151692,11.7761583 Z M118.210991,15.5387819 L118.210991,15.9854243 C118.862997,15.1282275 119.576118,14.4988741 120.350376,14.0973451 C121.124633,13.6958161 122.014337,13.4950547 123.019513,13.4950547 C123.997522,13.4950547 124.871378,13.7070949 125.641108,14.1311817 C126.410837,14.5552685 126.985862,15.1552972 127.366199,15.9312858 C127.610701,16.382442 127.769172,16.8696833 127.841618,17.3930245 C127.914063,17.9163656 127.950285,18.5840667 127.950285,19.3961478 L127.950285,26.2717335 C127.950285,27.0116296 127.780494,27.5710548 127.440907,27.950026 C127.101321,28.3289972 126.659865,28.51848 126.116527,28.51848 C125.564132,28.51848 125.115885,28.3244857 124.771771,27.9364914 C124.427656,27.5484971 124.255602,26.9935833 124.255602,26.2717335 L124.255602,20.1134826 C124.255602,18.8953609 124.085811,17.9637374 123.746224,17.3185841 C123.406638,16.6734307 122.729739,16.3508589 121.715507,16.3508589 C121.054445,16.3508589 120.452254,16.5471089 119.908915,16.9396148 C119.365577,17.3321207 118.967135,17.8712442 118.713577,18.5570016 C118.532464,19.1074121 118.441909,20.1360327 118.441909,21.6428943 L118.441909,26.2717335 C118.441909,27.0206527 118.26759,27.5823337 117.918948,27.9567933 C117.570306,28.331253 117.119795,28.51848 116.5674,28.51848 C116.033118,28.51848 115.593926,28.3244857 115.249811,27.9364914 C114.905697,27.5484971 114.733642,26.9935833 114.733642,26.2717335 L114.733642,15.5929204 C114.733642,14.8891167 114.887586,14.3635277 115.195478,14.0161374 C115.503369,13.6687472 115.92445,13.4950547 116.458733,13.4950547 C116.784736,13.4950547 117.07904,13.5717501 117.341654,13.7251432 C117.604268,13.8785363 117.814808,14.1086224 117.973282,14.4154086 C118.131756,14.7221948 118.210991,15.0966488 118.210991,15.5387819 Z M144.309038,16.2019781 L144.309038,26.9349297 C144.309038,28.1620745 144.177733,29.2177641 143.91512,30.1020302 C143.652506,30.9862963 143.231425,31.7171583 142.651864,32.2946382 C142.072303,32.8721181 141.313904,33.30071 140.376645,33.5804269 C139.439387,33.8601437 138.27349,34 136.878921,34 C135.602076,34 134.461082,33.821796 133.455906,33.4653826 C132.45073,33.1089692 131.676484,32.6487969 131.133146,32.0848516 C130.589807,31.5209064 130.318142,30.9411794 130.318142,30.3456533 C130.318142,29.8944971 130.472086,29.5268104 130.779977,29.242582 C131.087869,28.9583536 131.459145,28.8162415 131.893816,28.8162415 C132.437154,28.8162415 132.912568,29.0553507 133.320072,29.5335763 C133.519296,29.7772006 133.725309,30.023077 133.938117,30.2712129 C134.150924,30.5193488 134.386367,30.731389 134.644453,30.9073399 C134.902539,31.0832908 135.21269,31.2141242 135.574916,31.2998438 C135.937141,31.3855635 136.353694,31.4284227 136.824588,31.4284227 C137.784486,31.4284227 138.529301,31.2953336 139.059056,31.0291515 C139.588811,30.7629693 139.960087,30.3907711 140.172894,29.9125455 C140.385702,29.43432 140.510215,28.9222654 140.546438,28.3763665 C140.58266,27.8304675 140.609827,26.9529819 140.627938,25.7438834 C140.057433,26.5379183 139.398645,27.1424584 138.651554,27.5575221 C137.904464,27.9725858 137.014761,28.1801145 135.982417,28.1801145 C134.741795,28.1801145 133.657398,27.8643099 132.729195,27.2326913 C131.800991,26.6010727 131.08787,25.7168198 130.58981,24.5799063 C130.09175,23.4429928 129.842723,22.130148 129.842723,20.6413326 C129.842723,19.5314885 129.994403,18.5299368 130.297767,17.6366476 C130.601131,16.7433584 131.033531,15.9899389 131.594981,15.3763665 C132.156431,14.7627941 132.8039,14.300366 133.537406,13.9890682 C134.270913,13.6777704 135.076853,13.5221239 135.955251,13.5221239 C137.005705,13.5221239 137.915783,13.7228854 138.685513,14.1244144 C139.455242,14.5259434 140.170627,15.1552968 140.831689,16.0124935 L140.831689,15.5117126 C140.831689,14.8710709 140.99016,14.3748065 141.307108,14.0229047 C141.624055,13.6710029 142.031553,13.4950547 142.529613,13.4950547 C143.245009,13.4950547 143.720423,13.7273966 143.95587,14.1920875 C144.191316,14.6567783 144.309038,15.3267352 144.309038,16.2019781 Z M133.564573,20.8849558 C133.564573,22.3827942 133.892835,23.5151792 134.549369,24.2821447 C135.205903,25.0491102 136.054857,25.4325872 137.096256,25.4325872 C137.712039,25.4325872 138.293856,25.2679177 138.841722,24.9385737 C139.389588,24.6092297 139.835572,24.1129653 140.179686,23.4497657 C140.523801,22.7865662 140.695855,21.9812645 140.695855,21.0338365 C140.695855,19.5269749 140.363065,18.3539865 139.697476,17.514836 C139.031886,16.6756855 138.155766,16.2561166 137.069089,16.2561166 C136.009579,16.2561166 135.160625,16.6576396 134.522203,17.4606976 C133.88378,18.2637555 133.564573,19.4051635 133.564573,20.8849558 Z M171.511686,20.1134826 L171.511686,23.91671 C171.511686,24.422005 171.461881,24.8257837 171.362269,25.1280583 C171.262657,25.4303329 171.079283,25.7032783 170.812142,25.9469027 C170.545,26.190527 170.203155,26.4251247 169.786595,26.6507028 C168.582195,27.3003676 167.42309,27.7740745 166.309247,28.0718376 C165.195403,28.3696007 163.981965,28.51848 162.668897,28.51848 C161.138493,28.51848 159.743946,28.2838823 158.485211,27.8146799 C157.226477,27.3454774 156.1534,26.6642418 155.265947,25.7709526 C154.378494,24.8776634 153.697067,23.7949049 153.221646,22.5226445 C152.746225,21.2503841 152.508518,19.8292634 152.508518,18.25924 C152.508518,16.7162859 152.739433,15.3041883 153.201271,14.0229047 C153.663109,12.7416212 154.342272,11.6543512 155.23878,10.7610619 C156.135289,9.86777273 157.226477,9.18428139 158.512378,8.71056741 C159.798279,8.23685344 161.256216,8 162.886231,8 C164.226466,8 165.412737,8.17820401 166.44508,8.53461739 C167.477424,8.89103076 168.315058,9.33992441 168.958008,9.88131182 C169.600959,10.4226992 170.085428,10.995659 170.411432,11.6002082 C170.737435,12.2047575 170.900434,12.7416253 170.900434,13.2108277 C170.900434,13.7161226 170.712532,14.1469703 170.336723,14.5033837 C169.960914,14.859797 169.510402,15.038001 168.985175,15.038001 C168.695395,15.038001 168.416938,14.9703286 168.149796,14.8349818 C167.882655,14.6996349 167.658531,14.5101522 167.477418,14.2665279 C166.979358,13.4905392 166.558277,12.904045 166.214163,12.5070276 C165.870048,12.1100102 165.405954,11.7761596 164.821865,11.5054659 C164.237776,11.2347722 163.492961,11.0994274 162.587397,11.0994274 C161.654665,11.0994274 160.821559,11.2595854 160.088052,11.5799063 C159.354545,11.9002272 158.727451,12.3649111 158.206752,12.9739719 C157.686053,13.5830327 157.28761,14.329685 157.011413,15.2139511 C156.735216,16.0982172 156.59712,17.0772114 156.59712,18.150963 C156.59712,20.4789289 157.133658,22.269992 158.206752,23.5242061 C159.279845,24.7784203 160.776268,25.405518 162.696064,25.405518 C163.628795,25.405518 164.504915,25.2837076 165.32445,25.0400833 C166.143986,24.796459 166.974829,24.4490739 167.817003,23.9979178 L167.817003,20.7766788 L164.692823,20.7766788 C163.941204,20.7766788 163.372971,20.6638915 162.988107,20.4383134 C162.603242,20.2127353 162.410812,19.8292583 162.410812,19.2878709 C162.410812,18.8457379 162.571548,18.4803068 162.893023,18.1915669 C163.214498,17.9028269 163.651426,17.7584591 164.20382,17.7584591 L168.781424,17.7584591 C169.342874,17.7584591 169.818288,17.8080856 170.207681,17.9073399 C170.597073,18.0065943 170.911752,18.2276575 171.151727,18.5705362 C171.391701,18.9134149 171.511686,19.4277252 171.511686,20.1134826 Z M188.006274,21.0067673 C188.006274,22.1075884 187.834219,23.1226745 187.490105,24.0520562 C187.14599,24.9814379 186.647937,25.7799724 185.995931,26.4476835 C185.343925,27.1153946 184.565152,27.6274492 183.659588,27.9838626 C182.754023,28.3402759 181.735279,28.51848 180.603324,28.51848 C179.480424,28.51848 178.470735,28.3380202 177.574227,27.9770953 C176.677718,27.6161703 175.901209,27.0996043 175.244675,26.4273816 C174.588141,25.7551589 174.090088,24.9611359 173.750501,24.0452889 C173.410915,23.1294419 173.241124,22.1166115 173.241124,21.0067673 C173.241124,19.8879 173.413179,18.8637909 173.757293,17.9344092 C174.101408,17.0050275 174.594933,16.2110045 175.237883,15.5523165 C175.880834,14.8936285 176.659607,14.3860854 177.574227,14.029672 C178.488847,13.6732587 179.498536,13.4950547 180.603324,13.4950547 C181.726223,13.4950547 182.744968,13.6755144 183.659588,14.0364394 C184.574207,14.3973643 185.357509,14.9116746 186.009515,15.5793857 C186.661521,16.2470969 187.15731,17.0411198 187.496896,17.9614784 C187.836483,18.881837 188.006274,19.8969231 188.006274,21.0067673 Z M184.284424,21.0067673 C184.284424,19.4999057 183.951634,18.3269173 183.286044,17.4877668 C182.620455,16.6486163 181.726223,16.2290474 180.603324,16.2290474 C179.878873,16.2290474 179.240459,16.4162744 178.688065,16.790734 C178.135671,17.1651936 177.710062,17.7178516 177.411226,18.4487246 C177.11239,19.1795976 176.962974,20.03227 176.962974,21.0067673 C176.962974,21.9722415 177.110126,22.8158909 177.404435,23.5377408 C177.698743,24.2595906 178.119824,24.8122486 178.66769,25.1957314 C179.215556,25.5792141 179.860761,25.7709526 180.603324,25.7709526 C181.726223,25.7709526 182.620455,25.3491279 183.286044,24.5054659 C183.951634,23.6618039 184.284424,22.4955827 184.284424,21.0067673 Z M199.325588,26.4341489 C198.429079,27.1289294 197.562014,27.6500069 196.724368,27.9973972 C195.886721,28.3447874 194.947212,28.51848 193.905813,28.51848 C192.954971,28.51848 192.119601,28.331253 191.399677,27.9567933 C190.679754,27.5823337 190.125104,27.0747906 189.735711,26.4341489 C189.346319,25.7935071 189.151625,25.098737 189.151625,24.3498178 C189.151625,23.339228 189.473096,22.4775326 190.116046,21.7647059 C190.758997,21.0518791 191.641909,20.5736608 192.764808,20.3300364 C193.000255,20.2758977 193.584335,20.1540874 194.517066,19.9646018 C195.449797,19.7751162 196.248946,19.6014237 196.914535,19.443519 C197.580125,19.2856143 198.302301,19.0938758 199.081087,18.8682978 C199.035808,17.8938004 198.838851,17.1787286 198.490209,16.7230609 C198.141567,16.2673932 197.41939,16.0395627 196.323658,16.0395627 C195.381871,16.0395627 194.673278,16.1703961 194.197856,16.4320666 C193.722435,16.6937372 193.314937,17.0862372 192.975351,17.6095783 C192.635764,18.1329195 192.395793,18.4780488 192.255431,18.6449766 C192.115069,18.8119044 191.813973,18.895367 191.352135,18.895367 C190.935576,18.895367 190.575619,18.7622779 190.272255,18.4960958 C189.968891,18.2299136 189.817212,17.8892958 189.817212,17.4742322 C189.817212,16.8245673 190.048127,16.1929581 190.509965,15.5793857 C190.971803,14.9658133 191.691715,14.460526 192.669725,14.0635086 C193.647734,13.6664912 194.865699,13.4679854 196.323658,13.4679854 C197.953673,13.4679854 199.235027,13.6597239 200.167758,14.0432067 C201.100489,14.4266894 201.759277,15.0334854 202.144142,15.8636127 C202.529007,16.6937401 202.721436,17.7945446 202.721436,19.1660593 C202.721436,20.0322792 202.719172,20.7676527 202.714644,21.372202 C202.710117,21.9767512 202.703325,22.6489639 202.694269,23.38886 C202.694269,24.0836405 202.809727,24.8077353 203.040646,25.5611661 C203.271565,26.3145969 203.387022,26.7995825 203.387022,27.0161374 C203.387022,27.3951086 203.208176,27.7402379 202.850478,28.0515357 C202.492781,28.3628334 202.087547,28.51848 201.634765,28.51848 C201.254428,28.51848 200.878624,28.3402759 200.507343,27.9838626 C200.136062,27.6274492 199.742147,27.1108831 199.325588,26.4341489 Z M199.081087,21.087975 C198.537748,21.2864837 197.747655,21.4962682 196.710784,21.7173347 C195.673913,21.9384012 194.956265,22.100815 194.557816,22.2045809 C194.159368,22.3083469 193.779037,22.5113641 193.416811,22.8136387 C193.054586,23.1159134 192.873475,23.5377381 192.873475,24.0791255 C192.873475,24.6385591 193.08628,25.1145217 193.511895,25.5070276 C193.93751,25.8995335 194.494424,26.0957834 195.182652,26.0957834 C195.916159,26.0957834 196.593058,25.9356254 197.21337,25.6153045 C197.833681,25.2949836 198.28872,24.8821819 198.578501,24.376887 C198.91356,23.8174534 199.081087,22.8971086 199.081087,21.6158251 L199.081087,21.087975 Z M205.71413,13.8198855 L206.121631,13.8198855 L206.121631,11.6002082 C206.121631,11.0046821 206.137479,10.5377425 206.169173,10.1993753 C206.200868,9.8610082 206.289159,9.57001683 206.434049,9.3263925 C206.57894,9.07374505 206.787216,8.86847207 207.058886,8.71056741 C207.330555,8.55266275 207.633914,8.47371161 207.968973,8.47371161 C208.439866,8.47371161 208.865475,8.64965988 209.245812,9.00156169 C209.49937,9.23616289 209.660105,9.52264276 209.728023,9.86100989 C209.79594,10.199377 209.829898,10.6798511 209.829898,11.3024466 L209.829898,13.8198855 L211.188237,13.8198855 C211.713465,13.8198855 212.114171,13.9439516 212.390368,14.1920875 C212.666565,14.4402233 212.804661,14.7582837 212.804661,15.146278 C212.804661,15.6425498 212.607704,15.9899348 212.213784,16.1884435 C211.819863,16.3869522 211.256158,16.4862051 210.522651,16.4862051 L209.829898,16.4862051 L209.829898,23.280583 C209.829898,23.8580629 209.850273,24.3024451 209.891023,24.6137428 C209.931774,24.9250406 210.04044,25.1776843 210.217025,25.3716814 C210.39361,25.5656786 210.681122,25.6626757 211.07957,25.6626757 C211.296906,25.6626757 211.59121,25.624328 211.962491,25.5476314 C212.333772,25.4709349 212.623548,25.4325872 212.831828,25.4325872 C213.130664,25.4325872 213.400066,25.5521418 213.64004,25.7912546 C213.880015,26.0303673 214,26.3258702 214,26.677772 C214,27.2732981 213.674002,27.728959 213.021996,28.0447683 C212.369989,28.3605777 211.432745,28.51848 210.210233,28.51848 C209.051111,28.51848 208.172727,28.3244857 207.575055,27.9364914 C206.977382,27.5484971 206.585732,27.0116293 206.400091,26.3258719 C206.21445,25.6401146 206.121631,24.7242813 206.121631,23.5783446 L206.121631,16.4862051 L205.632629,16.4862051 C205.098346,16.4862051 204.690849,16.3598833 204.410124,16.1072358 C204.129399,15.8545884 203.989039,15.5342723 203.989039,15.146278 C203.989039,14.7582837 204.13619,14.4402233 204.430499,14.1920875 C204.724807,13.9439516 205.15268,13.8198855 205.71413,13.8198855 Z" id="Dancing-Goat" fill="#FFFFFF"></path>
            <g id="Group-4-Copy">
                <path d="M12.0981595,35.8680922 C4.82702834,35.8680922 -0.868092187,34.4846909 -0.868092187,32.0612371 C-0.636645851,31.4003468 -0.636645851,31.4003468 -0.405519284,31.2896106 C-0.268877792,31.2268997 -0.268877792,31.2268997 -0.195550869,31.2068863 C-0.132315838,31.1899321 -0.0704770156,31.1789737 0.00205826707,31.1694191 C0.100630982,31.1564348 0.229293747,31.1453484 0.394067925,31.134916 C0.691511666,31.1160838 1.11850896,31.098877 1.66855575,31.0831423 C3.75651392,31.0234137 18.9088744,30.9975035 21.4302512,31.0483242 C22.3125991,31.0661088 23.0050565,31.08706 23.4867109,31.1111268 C23.7467808,31.1241217 23.9480887,31.1381061 24.0944097,31.1539501 C24.1885037,31.1641389 24.2656753,31.1754839 24.3366483,31.1914092 C24.4118295,31.2086773 24.4118295,31.2086773 24.5441748,31.2599243 C24.7732012,31.3352828 24.7732012,31.3352828 25.0644112,32.0612371 C25.0644112,34.4846909 19.3692907,35.8680922 12.0981595,35.8680922 Z" id="Oval" stroke="#FFFFFF" stroke-width="1.73618437" stroke-linecap="square" stroke-linejoin="round"></path>
                <path d="M23.2130194,16.3581955 C22.868723,15.7538637 23.2963777,15.1785317 23.8640409,14.9997819 C24.061147,14.9377158 24.2874439,14.9087824 24.5710802,14.8935964 C24.7495993,14.8840384 24.8973754,14.8818605 25.1290505,14.8819056 L25.1451943,14.8819078 C26.6852521,14.8819078 29.8680922,16.3968133 29.8680922,17.5 C29.8680922,18.6716031 27.1062242,20.1180922 25.1451943,20.1180922 C24.8434482,20.1180922 24.4819461,20.0600985 24.0634403,19.9636961 C23.8289375,19.9096786 23.6290652,19.8558117 23.5014913,19.8182361 L22.753504,19.5979235 L22.8925911,18.8306704 C22.9024613,18.7762229 22.9201638,18.6755654 22.9430712,18.5401282 C22.9813698,18.3136931 23.0196776,18.0750667 23.0553516,17.8358948 C23.0791644,17.6762442 23.1009838,17.521712 23.1203696,17.3743152 C23.1676083,17.0151449 23.1984973,16.712587 23.2090982,16.4915033 C23.2115336,16.440711 23.212785,16.3958824 23.2130194,16.3581955 Z" id="Oval-3" stroke="#FFFFFF" stroke-width="1.73618437" stroke-linecap="round" stroke-linejoin="round"></path>
                <g id="Group-2" transform="translate(0.889571, 0.000000)" stroke="#FFFFFF" stroke-width="1.73618437" stroke-linejoin="round">
                    <path d="M15.5776518,3.39968277 C16.9207401,1.53700932 19.0621567,0.134254693 21.9753495,-0.824577359 L24.6425893,-1.70245785 L22.9361518,0.527545248 C22.1773439,1.51916903 21.3925891,3.13616237 20.6019064,5.36521058 C20.0792872,6.83854952 19.786963,8.44261587 19.7264622,10.1802076 L19.6972881,11.0180922 L13.3303983,11.0180922 L13.3657007,10.1160522 C13.4660476,7.55200842 14.203158,5.30591136 15.5776518,3.39968277 Z" id="Rectangle-2" stroke-linecap="square"></path>
                    <path d="M6.66909442,3.39968277 C8.04358829,5.30591136 8.78069862,7.55200842 8.88104557,10.1160522 L8.916348,11.0180922 L2.54945821,11.0180922 L2.5202841,10.1802076 C2.45978331,8.44261587 2.16745909,6.83854952 1.64483981,5.36521058 C0.854157143,3.13616237 0.0694023311,1.51916903 -0.689405583,0.527545248 L-2.39584308,-1.70245785 L0.271396804,-0.824577359 C3.18458955,0.134254693 5.32600615,1.53700932 6.66909442,3.39968277 Z" id="Rectangle-2" stroke-linecap="square"></path>
                    <path d="M14.7668712,7.525 L17.6134969,7.525" id="Line-2" stroke-linecap="round"></path>
                    <path d="M15.4785276,3.675 L18.3251534,3.675" id="Line-2" stroke-linecap="round"></path>
                    <path d="M2.66871166,7.525 L5.51533742,7.525" id="Line-2" stroke-linecap="round"></path>
                    <path d="M1.24539877,3.675 L4.09202454,3.675" id="Line-2" stroke-linecap="round"></path>
                </g>
                <g id="Rectangle-Copy-2" stroke-linecap="square" stroke-linejoin="round">
                    <use fill="#F36383" fill-rule="evenodd" xlink:href="#path-1"></use>
                    <path stroke="#FFFFFF" stroke-width="1.73618437" d="M0.216278898,11.0319078 L23.9800401,11.0319078 L21.0544872,28.1420388 C20.5505348,31.0894103 17.9619949,33.2430922 14.935311,33.2430922 L9.26100799,33.2430922 C6.23432407,33.2430922 3.6457842,31.0894103 3.14183181,28.1420388 L0.216278898,11.0319078 Z"></path>
                </g>
                <g id="Group" transform="translate(4.447853, 17.850000)" fill-rule="nonzero" fill="#FFFFFF">
                    <ellipse id="Oval-Copy" cx="1.7791411" cy="1.75" rx="1.7791411" ry="1.75"></ellipse>
                    <ellipse id="Oval-Copy-2" cx="13.5214724" cy="1.75" rx="1.7791411" ry="1.75"></ellipse>
                </g>
                <g id="Group-3" transform="translate(10.674847, 27.650000)" stroke-linecap="square">
                    <path d="M1.42331288,4.03420416 L1.42331288,1.92370408" id="Line" stroke="#FFFFFF" stroke-width="1.73618437"></path>
                    <g id="Triangle" stroke-linejoin="round">
                        <use fill="#FFFFFF" fill-rule="evenodd" xlink:href="#path-2"></use>
                        <path stroke="#FFFFFF" stroke-width="1.12851984" d="M1.42331288,1.75118785 L-1.71536011,-0.564259922 L4.56198587,-0.564259922 L1.42331288,1.75118785 Z"></path>
                    </g>
                </g>
            </g>
        </g>
    </g>
</svg>